<svg xmlns="http://www.w3.org/2000/svg" viewBox="0 0 416 416" width="416" height="416">
	<defs>
		<clipPath clipPathUnits="userSpaceOnUse" id="cp1">
			<path d="M8 8L408 8L408 408L8 408Z" />
		</clipPath>
	</defs>
	<style>
		tspan { white-space:pre }
		.shp0 { fill: none;stroke: #929292;stroke-linecap:round;stroke-width: 16 } 
	</style>
	<g id="Page 1" clip-path="url(#cp1)">
		<path id="Path 1" class="shp0" d="M23.75 153.81C18.7 170.99 16 189.18 16 208C16 229.23 19.45 249.65 25.8 268.74M205.84 16C130.84 16.83 66.14 60.69 35.28 124.04M400 202.52C397.38 109.09 327.91 32.32 237.76 18.29M196.67 371.98C192.85 382.57 188.98 391.6 185.69 398.68M208 208C208 208 220.53 258.68 211.2 316.34C209.8 325.04 208.03 333.38 206.05 341.27M244.71 305.42C244.3 309.05 243.8 312.7 243.2 316.34C237.39 352.27 227.17 382.61 220.3 400M152.68 391.87C161.71 374.11 172.78 347.63 178.18 316.52C186.15 270.55 179.24 228.56 176.5 213.66C176.17 211.82 176 209.93 176 208C176 190.33 190.33 176 208 176C223.17 176 235.88 186.56 239.16 200.73C239.16 200.73 246.63 233.09 246.51 273.5M373.66 265.5C373.9 278.24 373.73 292 372.94 306.37M145.23 60.77C164.51 52.56 185.73 48 208 48C288.78 48 355.8 108.22 366.67 186C366.67 186 370.12 204.57 372.21 233.48M47.41 313.26C49.32 308.38 50.98 303.19 52.25 297.75C56.87 277.9 53 249.87 50.21 234.66C48.76 225.99 48 217.09 48 208C48 153.27 75.48 104.95 117.4 76.1M239.84 83.99C229.66 81.38 218.99 80 208 80C137.3 80 80 137.3 80 208C80 214.63 80.51 221.15 81.48 227.52C84.53 244.23 88.48 272.62 83.2 301.34C80.42 316.48 75.38 330.02 69.82 341.41M335.62 351.37C336.76 344.73 337.79 337.86 338.68 330.81C348.01 256.93 334.56 188.72 334.56 188.72C328.49 148.55 303.76 114.51 269.48 95.7M299.04 177.47C300.26 181.1 301.26 184.84 302.05 188.66C305.78 208.19 313.78 256.63 308.53 310.33C306.01 336.1 301.27 359.38 296.28 378.51M116.66 292.04C120.62 255.51 113.84 226.76 113.84 226.76C112.63 220.69 112 214.42 112 208C112 154.98 154.98 112 208 112C238.8 112 266.23 126.51 283.79 149.07M94.81 363.25C100.59 352.04 106.37 338.57 110.61 323.52M185.98 147.89C192.84 145.37 200.26 144 208 144C238.89 144 264.68 165.7 270.69 194.82C274.1 211.2 282.27 258.3 276.45 310.92C272.75 344.33 264.8 373.25 257.9 393.55M122.88 380.2C132.4 362.04 142.25 338.24 146.4 312C152.66 272.41 147.95 236.98 145 219.5C144.28 215.67 144 212.04 144 208C144 191.84 149.99 177.09 159.87 165.82" />
	</g>
</svg>